<?xml version="1.0" encoding="UTF-8"?>
<svg id="Layer_1" data-name="Layer 1" xmlns="http://www.w3.org/2000/svg" viewBox="0 0 32 32">
  <path d="M25.25,22.57c2.27,2.18,4.53,4.35,6.75,6.48-1.05,1.05-1.93,1.92-2.97,2.96-1.5-1.55-3.09-3.2-4.7-4.84-.56-.57-1.09-1.44-1.75-1.57-.62-.12-1.39,.56-2.08,.92-7.54,3.93-16.2,.27-19.27-6.67C-2.55,11.32,2.83,1.74,11.63,.29c9.05-1.49,16.52,5.53,16.41,14.02-.03,2.52-.72,4.88-2.05,7.04-.23,.37-.45,.74-.74,1.22Zm-1.12-8.5c0-5.46-4.58-10-10.07-10-5.48,0-10.16,4.57-10.07,10,.1,5.67,4.11,10.05,10.12,10.13,5.55,.07,10.03-4.56,10.03-10.12Z"/>
</svg>